<svg xmlns="http://www.w3.org/2000/svg" width="27" height="25" viewBox="0 0 27 25" fill="none">
  <g clip-path="url(#clip0_337_25)">
    <path d="M13.2989 24.5449C15.825 24.5449 18.2943 23.8411 20.3946 22.5226C22.4949 21.204 24.1319 19.3298 25.0986 17.1371C26.0653 14.9444 26.3182 12.5316 25.8254 10.2038C25.3326 7.87607 24.1162 5.73788 22.33 4.05965C20.5438 2.38142 18.2681 1.23853 15.7906 0.775504C13.3131 0.312481 10.7451 0.550121 8.41135 1.45837C6.0776 2.36662 4.08291 3.90469 2.67952 5.87808C1.27613 7.85147 0.527077 10.1716 0.527077 12.5449C0.522942 14.1219 0.850474 15.6841 1.49085 17.1417C2.13124 18.5994 3.07185 19.9238 4.25865 21.0389C5.44545 22.1539 6.85505 23.0377 8.40647 23.6394C9.95788 24.2411 11.6205 24.5488 13.2989 24.5449Z" fill="#2775CA"/>
    <path d="M16.8112 14.4455C16.8112 12.7 15.6942 12.0946 13.4592 11.8447C11.8615 11.6451 11.5434 11.2447 11.5434 10.5455C11.5434 9.8462 12.0751 9.39457 13.1387 9.39457C14.0977 9.39457 14.6295 9.69457 14.8954 10.4451C14.924 10.5174 14.9755 10.5797 15.043 10.6237C15.1105 10.6676 15.1907 10.6909 15.2728 10.6906H16.1238C16.1731 10.6918 16.2222 10.6835 16.268 10.6664C16.3137 10.6492 16.3553 10.6234 16.3902 10.5907C16.4251 10.5579 16.4525 10.5188 16.4708 10.4758C16.489 10.4328 16.4978 10.3867 16.4965 10.3404V10.2913C16.3937 9.74937 16.1033 9.25453 15.6703 8.88366C15.2374 8.51278 14.6862 8.28665 14.1024 8.24039V7.04039C14.1024 6.84075 13.9422 6.6913 13.6763 6.64111H12.8775C12.665 6.64111 12.5059 6.79057 12.4525 7.04039V8.19457C10.8514 8.39966 9.84008 9.39457 9.84008 10.6447C9.84008 12.2953 10.9048 12.9455 13.1399 13.1953C14.6295 13.4451 15.1137 13.7407 15.1137 14.5447C15.1137 15.3487 14.3694 15.8953 13.3581 15.8953C11.9741 15.8953 11.5004 15.3498 11.3355 14.5949C11.3203 14.5106 11.2741 14.434 11.205 14.3783C11.1358 14.3227 11.0481 14.2917 10.957 14.2906H10.0479C9.99866 14.2895 9.9497 14.2979 9.90398 14.3151C9.85826 14.3323 9.81672 14.3581 9.78189 14.3908C9.74706 14.4235 9.71965 14.4626 9.70131 14.5055C9.68297 14.5485 9.67409 14.5945 9.6752 14.6407V14.6909C9.88884 15.9411 10.7399 16.8411 12.4966 17.0909V18.2909C12.4966 18.4906 12.6557 18.6411 12.9216 18.6913H13.7204C13.9329 18.6913 14.0931 18.5407 14.1454 18.2909V17.0909C15.7418 16.8411 16.8065 15.7906 16.8065 14.4411L16.8112 14.4455Z" fill="white"/>
    <path d="M10.5844 19.6948C9.05316 19.1671 7.73131 18.2104 6.79749 16.9541C5.86367 15.6977 5.36292 14.2023 5.36292 12.6699C5.36292 11.1375 5.86367 9.64202 6.79749 8.38567C7.73131 7.12932 9.05316 6.17264 10.5844 5.64495C10.6865 5.60343 10.7723 5.53296 10.8298 5.44338C10.8873 5.3538 10.9135 5.24959 10.9048 5.14531V4.44495C10.912 4.35309 10.8835 4.26189 10.8245 4.18828C10.7656 4.11466 10.6803 4.06361 10.5844 4.04459C10.5095 4.03725 10.4342 4.05502 10.3719 4.09477C8.43453 4.67333 6.74338 5.81613 5.54322 7.35776C4.34306 8.89938 3.69617 10.7598 3.69617 12.6699C3.69617 14.5799 4.34306 16.4403 5.54322 17.982C6.74338 19.5236 8.43453 20.6664 10.3719 21.245C10.4161 21.2691 10.4658 21.2831 10.5169 21.2857C10.568 21.2883 10.6191 21.2795 10.6658 21.26C10.7126 21.2406 10.7538 21.211 10.7861 21.1736C10.8183 21.1363 10.8407 21.0923 10.8514 21.0453C10.9048 20.9951 10.9048 20.945 10.9048 20.8446V20.1453C10.9048 19.9948 10.7446 19.7951 10.5844 19.6948ZM16.226 4.09477C16.1817 4.07062 16.1319 4.05669 16.0808 4.05413C16.0296 4.05157 15.9785 4.06045 15.9317 4.08005C15.8849 4.09964 15.8437 4.12938 15.8115 4.16684C15.7793 4.20429 15.757 4.24838 15.7465 4.2955C15.6943 4.34459 15.6943 4.39477 15.6943 4.49513V5.19441C15.7032 5.29524 15.7367 5.39281 15.792 5.47961C15.8474 5.56641 15.9232 5.64014 16.0136 5.69513C17.5448 6.22282 18.8666 7.1795 19.8004 8.43585C20.7343 9.69221 21.235 11.1877 21.235 12.72C21.235 14.2524 20.7343 15.7479 19.8004 17.0042C18.8666 18.2606 17.5448 19.2173 16.0136 19.745C15.9115 19.7865 15.8258 19.857 15.7686 19.9466C15.7113 20.0362 15.6853 20.1404 15.6943 20.2446V20.945C15.687 21.0367 15.7154 21.1277 15.7741 21.2013C15.8328 21.2749 15.9179 21.3261 16.0136 21.3453C16.0885 21.3527 16.1637 21.3349 16.226 21.2951C18.1627 20.7086 19.8514 19.56 21.0493 18.0146C22.2472 16.4693 22.8925 14.6067 22.8925 12.695C22.8925 10.7832 22.2472 8.92064 21.0493 7.37527C19.8514 5.82991 18.1627 4.68134 16.226 4.09477Z" fill="white"/>
  </g>
  <defs>
    <clipPath id="clip0_337_25">
      <rect width="25.5437" height="24" fill="white" transform="translate(0.5271 0.544922)"/>
    </clipPath>
  </defs>
</svg>